<svg xmlns="http://www.w3.org/2000/svg" viewBox="0 0 437.9 138.1"><style>.st0{fill:#232323;}</style><path class="st0" d="M334.5 61.3c-9.1 11.7-26.3 45.9-29.9 52.5 6.7-31 13.4-47 8.4-53.4-.6-.8-2-1.1-3.6-1.1h-.7c-9.3.3-18.4 6.6-25.9 12.5-.8-3-2.7-4.6-5.4-5.2-2.1-2.1-4.7-3.8-7.6-5.3-2.7-1.3-6-1.9-9.6-1.7-16.2.4-33.3 13.7-43.5 19.4 1.1-8-1.6-11.2-5.8-12.2-2.2-2.8-5.2-5.1-9-6.9-8.4-4.2-23.8-.9-36.9 10.7-14.9 11.6-26.4 27-26.4 27-1.8 2.6-1.7 1.2-1.2 0 1-2.5 11-34.9 16.1-45.7 2.1-4.5 4.1-14.4-2-16-11.3-3-22.5 1.5-28.7 7-6 5.3-16.1 18.7-23.4 24.9-1.2 1-1.4 1.3-1.1.2 1.6-7.1 8-30 10.7-40.4 2.6-10.4 7.8-24.5-1-26.6-14-3.3-31.6 3.2-46.6 15.9-12.6 10.6-37.5 46.3-48.7 65.4C1.6 101.2-7.5 122.1 9 134c5.7 4.1 14.3 6.8 17.7-.7C45 84 64 57.3 78.8 37.6c1.7-2.2 1.5-.7 1.3 1.1 0 0-5.2 36.4-6.5 48.4-1 9.5-1.1 12.1 4 14.6 3.9 2.4 5.7.9 8.2-1.1 4.9-3.9 33-31.4 33-31.4 1.1-1.2.9-.2.6.6-1.7 4.8-4.6 17.6-9.1 33.3-4.3 15.4-3.5 13.7-5.1 19.4-2.7 9.3 11.6 14.9 13 15.2 5.7 1.4 7.6-1.3 10.6-5.3 3.1-4.2 9.8-16.6 18.7-29.3-1.5 11.8 1 23.6 8.5 30.1 9.2 7.9 33.3 9.4 48.7-20 4-7.6 6.9-14.4 8.6-20.3 2.4-.6 5-1.6 7.6-2.8-7 14.6-7.9 33 2.7 42.1 9.2 7.9 33.9 12 48.8-17.6 6.2-12.4 9.4-22 10.1-29.5 1.4-.7 2.8-1.6 4.1-2.6 6.4-4.3-.2 40.3-.6 44.5-.4 4.3 4.6 9.4 8.4 10 5.2.9 9-2.5 11.3-6 9.4-13.6 30.6-35.5 42.9-48.5 6.8-7-5.8-31.9-14.1-21.2zm-141.4 45.6c-6.1 10.8-16.7 14.2-22.7 8-5.8-5.9-1.6-20.5 4.7-30 4.6-7.1 13-14.4 19.4-11.8-1.2 1.9-2 4.1-2 6.5 0 4.5 2.7 8.4 6.4 10.8-1.1 6-3.3 12.2-5.8 16.5zm67.7 1.5c-6.1 10.8-16.7 14.2-22.7 8-5.8-5.9-1.6-20.5 4.7-30 4.5-6.8 12.3-13.8 18.6-12.1-.6 1.3-1 2.8-1 4.4 0 4.5 2.8 7.7 6.6 9-.5 7-3.2 15.3-6.2 20.7z"/><path class="st0" d="M430.9 116.4c-2-1.8-5.1-2.2-8.2-1.7-2.9.5-30.5 0-51.8-.2-.2 0-.3-.2-.2-.3 4.5-5.5 36.9-38.9 47.3-52.4 13.8-18 10.8-55.6-29.4-55.1-27.9.3-41.8 21-43.3 24s-.5 4.7 1.2 7.6c1.9 3.3 12.5 14.2 15.3 10.3 3.3-4.7 7.3-11 19.2-15 19.4-6.5 24.8 8.4 12.6 24.6-15.5 20.6-47.2 44.4-55.9 57.4-2.3 3.2-5.2 9.1-3.5 12.8 1.8 4 3.6 10 10.6 9.5 4.1-.3 64.6.8 83.4-1.1s4.7-18.7 2.7-20.4z"/></svg>